<svg xmlns="http://www.w3.org/2000/svg" viewBox="0 0 512 512">
  <rect width="512" height="512" rx="112" fill="#0f172a"/>
  <g transform="translate(96 96) scale(5)" color="#ffffff">
    
        <g fill="none" stroke="currentColor" stroke-width="3.2" stroke-linecap="round" stroke-linejoin="round">
          <path d="M32 6C25 15 25 22 32 31C39 22 39 15 32 6Z"/>
          <path d="M32 58C39 49 39 42 32 33C25 42 25 49 32 58Z"/>
          <path d="M6 32C15 25 22 25 31 32C22 39 15 39 6 32Z"/>
          <path d="M58 32C49 39 42 39 33 32C42 25 49 25 58 32Z"/>
          <path d="M14 14C25 15 30 20 32 31C21 29 16 24 14 14Z"/>
          <path d="M50 14C49 25 44 30 33 32C35 21 40 16 50 14Z"/>
          <path d="M14 50C15 39 20 34 31 32C29 43 24 48 14 50Z"/>
          <path d="M50 50C39 49 34 44 32 33C43 35 48 40 50 50Z"/>
        </g>
        <circle cx="32" cy="32" r="3.2" fill="currentColor"/>
        <circle cx="32" cy="3.8" r="2" fill="currentColor"/>
        <circle cx="32" cy="60.2" r="2" fill="currentColor"/>
        <circle cx="3.8" cy="32" r="2" fill="currentColor"/>
        <circle cx="60.2" cy="32" r="2" fill="currentColor"/>
      
  </g>
</svg>