<svg xmlns="http://www.w3.org/2000/svg" viewBox="0 0 512 512">
  <defs>
    <linearGradient id="g" x1="80" y1="60" x2="430" y2="455" gradientUnits="userSpaceOnUse">
      <stop offset="0" stop-color="#8b5cf6"/>
      <stop offset="1" stop-color="#6d5dfc"/>
    </linearGradient>
    <filter id="shadow" x="-10%" y="-10%" width="120%" height="120%">
      <feDropShadow dx="0" dy="20" stdDeviation="24" flood-color="#0f172a" flood-opacity=".20"/>
    </filter>
  </defs>
  <rect x="24" y="24" width="464" height="464" rx="110" fill="url(#g)" filter="url(#shadow)"/>
  <g transform="translate(96 96) scale(5)" color="#ffffff">
    
<g fill="none" stroke="currentColor" stroke-width="3.2" stroke-linecap="round" stroke-linejoin="round">
  <path d="M32 6C25 15 25 22 32 31C39 22 39 15 32 6Z"/>
  <path d="M32 58C39 49 39 42 32 33C25 42 25 49 32 58Z"/>
  <path d="M6 32C15 25 22 25 31 32C22 39 15 39 6 32Z"/>
  <path d="M58 32C49 39 42 39 33 32C42 25 49 25 58 32Z"/>
  <path d="M14 14C25 15 30 20 32 31C21 29 16 24 14 14Z"/>
  <path d="M50 14C49 25 44 30 33 32C35 21 40 16 50 14Z"/>
  <path d="M14 50C15 39 20 34 31 32C29 43 24 48 14 50Z"/>
  <path d="M50 50C39 49 34 44 32 33C43 35 48 40 50 50Z"/>
</g>
<circle cx="32" cy="32" r="3.2" fill="currentColor"/>
<circle cx="32" cy="3.8" r="2" fill="currentColor"/>
<circle cx="32" cy="60.2" r="2" fill="currentColor"/>
<circle cx="3.8" cy="32" r="2" fill="currentColor"/>
<circle cx="60.2" cy="32" r="2" fill="currentColor"/>

  </g>
</svg>